# xmcd
#
# Track frame offsets: 
#        150
#        15119
#        35543
#        55340
#        72556
#        88561
#        101685
#        115376
#        127377
#        184921
#        198848
#        209162
#        229078
#        251430
#        268646
#        283303
#        300902
#        324752
#        341173
#
# Disc length: 4699 seconds
#
# Revision: 2
# Processed by: cddbd v1.5.2PL0 Copyright (c) Steve Scherf et al.
# Submitted via: ExactAudioCopy v1.1
#
DISCID=1c125913
DTITLE=O.V. Wright - The Complete O.V. Wright on Hi Records
DYEAR=1999
DGENRE=Soul
TTITLE0=Rhymes
TTITLE1=Without You
TTITLE2=Into Something (Can't Shake Loose)
TTITLE3=I Feel Love Growin'
TTITLE4=Precious, Precious
TTITLE5=The Time We Have
TTITLE6=You Gotta Have Love
TTITLE7=Trying To Live My Life Without You
TTITLE8=Medley: God Blessed Our Love - When A Man Loves A Woman - That
TTITLE8='s How Strong My Love Is
TTITLE9=The Bottom Line
TTITLE10=I Don't Do Windows
TTITLE11=That's The Way I Fell About Cha
TTITLE12=Your Good Thing Is About To End
TTITLE13=Let's Straighten It Out
TTITLE14=I Don't Know Why
TTITLE15=No Easy Way To Say Goodbye
TTITLE16=A Little More Time
TTITLE17=Since You Left These Arms Of Mine
TTITLE18=A Long Road
EXTD=
EXTT0=
EXTT1=
EXTT2=
EXTT3=
EXTT4=
EXTT5=
EXTT6=
EXTT7=
EXTT8=
EXTT9=
EXTT10=
EXTT11=
EXTT12=
EXTT13=
EXTT14=
EXTT15=
EXTT16=
EXTT17=
EXTT18=
PLAYORDER=
